# xmcd
#
# Track frame offsets:
#	150
#	12951
#	27340
#	43655
#	59640
#	73366
#	95180
#	107229
#	119630
#	136906
#	148726
#	165813
#	183120
#	198910
#	211938
#	223753
#	240973
#	259509
#
# Disc length: 3623 seconds
#
# Revision: 1
# Processed by: cddbd v1.5.2PL0 Copyright (c) Steve Scherf et al.
# Submitted via: audiograbber 1.83.01
#
DISCID=0c0e2512
DTITLE=Andy Lee Lang - Country Christmas
DYEAR=2012
DGENRE=Country Christmas
TTITLE0=Santa´s Flying A747 Tonight
TTITLE1=Christmas Like Mama Used To Make It
TTITLE2=All I Want For Christmas
TTITLE3=Hot Texas Christmas Day
TTITLE4=Dear Santa
TTITLE5=Tenessee Christmas
TTITLE6=Two-Step Around The Christmas Tree
TTITLE7=Mele Kalikimaka
TTITLE8=Christmas Time In Texas
TTITLE9=The Reindeer Boogie
TTITLE10=One Christmas Eve Long Ago
TTITLE11=Old Hippie Christmas
TTITLE12=Christmas in Dixie
TTITLE13=How Do I Warp My Heart Up For Christmas
TTITLE14=Merry Christmas From Texad Y`All
TTITLE15='Blue Snow At Christmas
TTITLE16=Cowboy´s Christmas
TTITLE17=The Old Man´s Back In Town
EXTD=
EXTT0=
EXTT1=
EXTT2=
EXTT3=
EXTT4=
EXTT5=
EXTT6=
EXTT7=
EXTT8=
EXTT9=
EXTT10=
EXTT11=
EXTT12=
EXTT13=
EXTT14=
EXTT15=
EXTT16=
EXTT17=
PLAYORDER=
